<svg xmlns="http://www.w3.org/2000/svg" viewBox="0 0 100 100">
  <defs>
    <linearGradient id="grad1" x1="0%" y1="0%" x2="100%" y2="100%">
      <stop offset="0%" style="stop-color:#0F2854;stop-opacity:1" />
      <stop offset="100%" style="stop-color:#1C4D8D;stop-opacity:1" />
    </linearGradient>
  </defs>
  <circle cx="50" cy="50" r="48" fill="url(#grad1)" stroke="#4988C4" stroke-width="2"/>
  
  <!-- Face/Beard simplified -->
  <path d="M30 40 Q50 35 70 40 V55 Q70 75 50 80 Q30 75 30 55 Z" fill="#BDE8F5"/>
  <path d="M30 55 Q30 75 50 80 Q70 75 70 55 Q70 65 50 65 Q30 65 30 55" fill="#1C4D8D"/>
  
  <!-- Glasses/Eyes -->
  <rect x="35" y="45" width="12" height="6" rx="2" fill="#0F2854"/>
  <rect x="53" y="45" width="12" height="6" rx="2" fill="#0F2854"/>
  <line x1="47" y1="48" x2="53" y2="48" stroke="#0F2854" stroke-width="2"/>
  
  <!-- Hair hint -->
  <path d="M30 40 Q50 25 70 40" fill="none" stroke="#BDE8F5" stroke-width="3" stroke-linecap="round"/>
</svg>
